HIERARCHY
ROOT Hips
{
  OFFSET -187.679 86.5976 -156.378
  CHANNELS 6 Xposition Yposition Zposition Zrotation Xrotation Yrotation
  JOINT LeftUpLeg
  {
    OFFSET 8.64259 1.95398 -2.38835
    CHANNELS 3 Zrotation Xrotation Yrotation
    JOINT LeftLeg
    {
      OFFSET 43.7702 0 0
      CHANNELS 3 Zrotation Xrotation Yrotation
      JOINT LeftFoot
      {
        OFFSET 40.6238 0 0
        CHANNELS 3 Zrotation Xrotation Yrotation
        JOINT LeftToeBase
        {
          OFFSET 12.7242 0 0
          CHANNELS 3 Zrotation Xrotation Yrotation
          End Site
          {
            OFFSET 0 0 0
          }
        }
      }
    }
  }
  JOINT RightUpLeg
  {
    OFFSET -8.2249 1.95398 -2.59336
    CHANNELS 3 Zrotation Xrotation Yrotation
    JOINT RightLeg
    {
      OFFSET 43.5653 0 0
      CHANNELS 3 Zrotation Xrotation Yrotation
      JOINT RightFoot
      {
        OFFSET 40.6238 0 0
        CHANNELS 3 Zrotation Xrotation Yrotation
        JOINT RightToeBase
        {
          OFFSET 12.7242 0 0
          CHANNELS 3 Zrotation Xrotation Yrotation
          End Site
          {
            OFFSET 0 0 0
          }
        }
      }
    }
  }
  JOINT Spine
  {
    OFFSET 0.165834 0.87714 6.61349
    CHANNELS 3 Zrotation Xrotation Yrotation
    JOINT Spine1
    {
      OFFSET 7.38963 1.71661e-005 0
      CHANNELS 3 Zrotation Xrotation Yrotation
      JOINT Spine2
      {
        OFFSET 11.9445 1.14441e-005 0
        CHANNELS 3 Zrotation Xrotation Yrotation
        JOINT Spine3
        {
          OFFSET 14.7254 4.19617e-005 0
          CHANNELS 3 Zrotation Xrotation Yrotation
          JOINT Spine4
          {
            OFFSET 10.9679 0 0
            CHANNELS 3 Zrotation Xrotation Yrotation
            JOINT RightShoulder
            {
              OFFSET 2.46616 -1.6653 3.69651
              CHANNELS 3 Zrotation Xrotation Yrotation
              JOINT RightArm
              {
                OFFSET 13.0012 0 0
                CHANNELS 3 Zrotation Xrotation Yrotation
                JOINT RightForeArm
                {
                  OFFSET 28.7848 1.52588e-005 0
                  CHANNELS 3 Zrotation Xrotation Yrotation
                  JOINT RightHand
                  {
                    OFFSET 26.5688 1.52588e-005 0
                    CHANNELS 3 Zrotation Xrotation Yrotation
                    End Site
                    {
                      OFFSET 0 0 0
                    }
                  }
                }
              }
            }
            JOINT LeftShoulder
            {
              OFFSET 2.38034 -1.29275 -3.7523
              CHANNELS 3 Zrotation Xrotation Yrotation
              JOINT LeftArm
              {
                OFFSET 16.3182 6.10352e-005 0
                CHANNELS 3 Zrotation Xrotation Yrotation
                JOINT LeftForeArm
                {
                  OFFSET 27.0901 0 0
                  CHANNELS 3 Zrotation Xrotation Yrotation
                  JOINT LeftHand
                  {
                    OFFSET 24.5451 1.52588e-005 0
                    CHANNELS 3 Zrotation Xrotation Yrotation
                    End Site
                    {
                      OFFSET 0 0 0
                    }
                  }
                }
              }
            }
            JOINT Neck
            {
              OFFSET 5.0226 -0.0266342 0
              CHANNELS 3 Zrotation Xrotation Yrotation
              JOINT Head
              {
                OFFSET 6.69363 2.86102e-005 0
                CHANNELS 3 Zrotation Xrotation Yrotation
                End Site
                {
                  OFFSET 0 0 0
                }
              }
            }
          }
        }
      }
    }
  }
}
MOTION
Frames:	16
Frame Time:	0.0416667
38.3062 101.944 29.7744 -169.305 -80.6575 -171.215 -174.72 -8.16081 88.4759 -15.3179 18.7039 8.61415 71.4887 5.23421 -1.99157 13.3828 -7.70897 2.99658 170.671 -7.76737 84.6831 -14.5845 10.0997 2.5773 66.7549 -3.10857 2.11189 26.4935 -1.27507 2.98962 0.0785409 8.06303 -89.6441 10.7463 0.320536 0.678071 -0.924753 0.350079 0.663305 -23.4585 0.101935 0.743053 -3.44589 0.10194 0.743054 83.9791 -49.7624 -109.817 24.7231 -29.5894 -15.0136 -13.4092 -13.874 -14.3039 -9.67131 -0.115068 -3.78905 -90.7421 -44.226 76.4526 -25.5567 30.4302 -13.0586 6.9805 -7.9555 -10.4109 -1.80976 -0.0824908 -3.31909 7.42567 -1.42042 -5.03529 8.29488 -0.0812231 2.88319 
38.1448 101.974 29.7357 -170.3 -81.121 -171.755 -174.272 -7.325 89.2925 -15.8532 19.3811 8.32878 71.7013 5.28281 -2.12724 13.7005 -7.95983 3.78538 171.354 -7.67059 85.5643 -14.0726 10.2849 2.41766 65.9054 -2.87087 1.556 26.5273 -1.37168 3.32314 0.0617074 8.00994 -89.6903 10.8529 0.266007 0.590962 -0.81816 0.291757 0.578679 -23.3523 0.0761089 0.643586 -3.33963 0.0760983 0.643573 83.7673 -49.9245 -110.08 25.1075 -28.6281 -14.8813 -13.6664 -14.9056 -14.3975 -10.483 -0.162319 -3.3335 -90.7868 -44.2583 76.3901 -25.0673 31.7284 -12.666 6.62352 -8.56708 -11.1923 -1.33988 -0.0707007 -2.38499 6.72618 -1.42114 -5.60861 9.55901 0.139587 3.86897 
38.1673 101.975 29.6913 -170.214 -81.4817 -172.018 -174.595 -7.043 88.8015 -15.7817 19.2633 8.39199 71.5997 5.25925 -2.04454 13.8097 -8.01687 4.00023 171.156 -7.15935 85.2219 -14.2355 10.117 2.48774 66.0427 -2.86698 1.65952 26.3298 -1.19797 2.64519 0.0769111 7.9654 -89.676 10.9418 0.303127 0.615958 -0.729221 0.329941 0.602016 -23.2633 0.10399 0.67858 -3.25061 0.104 0.678581 84.0567 -49.7932 -109.69 25.2373 -28.4795 -14.6976 -13.7747 -15.1556 -14.5569 -10.484 -0.164625 -3.31236 -91.1254 -44.4336 75.8996 -24.8211 32.0764 -12.7601 6.39554 -9.44405 -11.0901 -1.3585 -0.0805366 -3.51541 6.45108 -1.46648 -5.31676 10.0375 0.00562726 3.53762 
38.1874 101.988 29.6741 -170.066 -81.5053 -171.868 -174.565 -7.00905 88.8212 -15.7274 19.2631 8.33471 71.5189 5.18923 -2.18715 13.8939 -8.0135 4.07268 171.161 -7.04735 85.2076 -14.3381 10.0487 2.46634 66.0995 -2.87574 1.45192 26.2254 -1.36789 3.1275 0.0968033 7.95586 -89.7108 10.9611 0.32663 0.544265 -0.70993 0.350268 0.529355 -23.2443 0.147959 0.617263 -3.23161 0.147958 0.617259 84.4875 -49.4287 -109.163 25.4577 -28.5668 -14.6587 -14.0158 -16.3533 -14.7882 -9.67156 -0.113048 -3.816 -91.4792 -44.9444 75.4766 -24.4561 31.9205 -12.7805 6.35048 -9.46194 -11.0133 -0.850612 -0.0780045 -3.34193 6.27559 -1.50346 -4.81434 10.0846 -0.164135 3.27738 
38.1877 101.987 29.691 -170.395 -81.478 -172.176 -174.552 -6.96875 88.8297 -15.9249 19.2961 8.33028 71.666 5.31926 -1.93271 13.4747 -8.11092 3.87352 171.128 -7.13489 85.2091 -14.3027 10.0278 2.50337 66.0413 -2.87731 1.50399 26.3453 -1.29814 2.97599 0.0911715 7.96013 -89.7085 10.9525 0.31647 0.549811 -0.71851 0.34036 0.535334 -23.2528 0.136599 0.619496 -3.24016 0.136607 0.619498 84.4123 -49.4707 -109.262 25.4888 -28.364 -14.6936 -14.0867 -16.6012 -14.7616 -9.70451 -0.110819 -3.84651 -91.3443 -44.8328 75.659 -24.473 32.1267 -12.8578 6.38999 -9.27151 -11.1557 -0.930323 -0.0772656 -3.34508 6.39525 -1.46287 -4.86301 9.9514 -0.110116 3.31201 
38.172 101.985 29.7034 -170.646 -81.4089 -172.39 -174.525 -6.99289 88.8975 -16.0168 19.4155 8.36504 71.6013 5.26091 -2.02641 13.8439 -7.9563 3.91241 171.134 -7.26433 85.2677 -14.2287 9.8976 2.52275 66.0288 -2.88757 1.32971 26.3342 -1.17386 2.57039 0.101598 7.95975 -89.7171 10.9451 0.333257 0.531397 -0.725874 0.356317 0.516208 -23.2603 0.158139 0.60698 -3.24762 0.158147 0.606985 84.4678 -49.4745 -109.177 25.4556 -28.4565 -14.6098 -14.2254 -16.9829 -15.0293 -9.37407 -0.100502 -3.94358 -91.502 -44.9183 75.4338 -24.3128 32.3056 -12.8647 6.22306 -10.0036 -11.088 -1.43854 -0.0769477 -3.61618 6.33467 -1.58988 -4.84314 10.0582 -0.246323 3.23067 
38.1923 101.979 29.7244 -170.512 -81.432 -172.299 -174.55 -7.0739 88.8084 -15.8792 19.4825 8.35376 71.6168 5.36979 -1.68534 13.4902 -8.07578 3.81885 171.139 -7.17373 85.2037 -14.3459 10.0496 2.47279 66.0538 -2.87498 1.49143 26.2874 -1.27632 2.87107 0.105651 7.95773 -89.7057 10.9579 0.346608 0.552569 -0.713137 0.370585 0.536775 -23.2475 0.164512 0.631194 -3.23481 0.164513 0.63119 84.3814 -49.5958 -109.267 25.3642 -28.5312 -14.6531 -14.1973 -17.1722 -14.9909 -9.72322 -0.107238 -3.89609 -91.4866 -44.8085 75.4287 -24.3657 32.3719 -12.8811 6.28525 -9.71118 -11.1113 -1.70368 -0.077047 -3.4912 6.42382 -1.59709 -5.03864 9.95194 -0.203138 3.33373 
38.1773 101.988 29.7629 -171.028 -81.2923 -172.725 -174.48 -7.22095 88.9505 -15.9128 19.4909 8.39662 71.6572 5.31151 -1.95645 13.6484 -8.07453 3.96347 171.13 -7.45305 85.2794 -14.2174 9.86834 2.5121 65.897 -2.8264 1.43746 26.5308 -1.13326 2.55331 0.0948649 7.97067 -89.7133 10.9314 0.321583 0.53987 -0.739653 0.345035 0.525184 -23.274 0.144464 0.611552 -3.26134 0.144469 0.611558 84.2403 -49.6232 -109.471 25.3941 -28.4773 -14.5746 -14.3769 -17.5104 -15.145 -9.37307 -0.100822 -3.93602 -91.3897 -44.8347 75.5882 -24.3049 32.478 -12.773 6.23613 -10.056 -11.2908 -1.6061 -0.0774563 -3.55793 6.45329 -1.53423 -5.05734 10.1144 -0.127819 3.36791 
38.1865 101.991 29.796 -171.534 -81.2333 -173.235 -174.438 -7.19251 88.9831 -16.1379 19.5395 8.36239 71.7797 5.36532 -1.91198 13.4249 -8.01293 3.63455 171.17 -7.62961 85.2709 -13.9731 10.4225 2.47199 66.1959 -2.98879 1.23299 26.0786 -1.59358 3.75894 0.10027 7.98328 -89.7183 10.9062 0.329966 0.529213 -0.764792 0.352931 0.514169 -23.2992 0.155655 0.603915 -3.28655 0.155661 0.603912 84.3923 -49.6669 -109.227 25.3305 -28.5907 -14.7006 -14.1677 -16.4813 -15.0171 -9.44136 -0.0976523 -3.98536 -91.4799 -44.738 75.4204 -24.4002 32.2389 -12.9347 6.31253 -9.85289 -10.9822 -1.28662 -0.0781469 -3.45913 6.63183 -1.62464 -5.18554 9.94474 -0.162419 3.59722 
38.1735 101.989 29.792 -171.546 -81.3165 -173.299 -174.416 -7.1507 88.9895 -16.0126 19.6414 8.29614 71.6498 5.29208 -2.02364 13.6847 -8.07653 4.00124 171.108 -7.41495 85.2331 -14.3044 9.91429 2.51276 65.9154 -2.83191 1.54757 26.5199 -1.03642 2.23496 0.0933222 7.97119 -89.7113 10.9304 0.319414 0.543982 -0.740598 0.343044 0.529398 -23.2749 0.141162 0.614834 -3.26228 0.141153 0.614822 84.2676 -49.7314 -109.393 25.2491 -28.4778 -14.6667 -14.3495 -17.2499 -15.1915 -9.37834 -0.0874413 -4.11178 -91.434 -44.7549 75.4973 -24.349 32.4522 -12.7964 6.29972 -9.73609 -11.2755 -1.44824 -0.0790709 -3.04513 6.60129 -1.5871 -5.26556 9.82026 -0.108438 3.66282 
38.1829 101.992 29.8009 -171.384 -81.2016 -173.078 -174.417 -7.27215 89.0134 -16.024 19.5047 8.34718 71.7242 5.32037 -2.00844 13.4696 -8.10631 3.85974 171.115 -7.58475 85.2666 -14.2036 9.88731 2.50968 65.9787 -2.86739 1.38771 26.4085 -1.13905 2.50112 0.100989 7.98301 -89.719 10.9071 0.331083 0.527777 -0.763945 0.353994 0.51269 -23.2983 0.157161 0.602887 -3.28569 0.157161 0.602876 84.3082 -49.6759 -109.351 25.3027 -28.5207 -14.6494 -14.178 -16.5749 -15.0034 -9.33724 -0.0955753 -4.00174 -91.4433 -44.7699 75.4866 -24.3353 32.3234 -12.8152 6.27595 -9.79834 -11.1196 -1.32244 -0.0801164 -3.00494 6.52269 -1.53896 -5.24567 9.87528 -0.0806762 3.54186 
38.1939 101.988 29.8077 -171.604 -81.2252 -173.366 -174.451 -7.25542 88.9314 -16.0425 19.7179 8.36502 71.5992 5.31068 -1.86891 13.6864 -7.96417 3.78105 171.1 -7.56091 85.1837 -14.1368 10.1654 2.48793 66.1044 -2.89662 1.13248 26.4015 -1.53383 3.76443 0.10256 7.97999 -89.7166 10.907 0.335335 0.5324 -0.763982 0.358452 0.517116 -23.2984 0.159831 0.608565 -3.28572 0.159831 0.608566 84.3725 -49.7148 -109.241 25.2275 -28.4836 -14.7024 -14.2087 -16.7916 -15.0288 -9.65333 -0.0929427 -4.06646 -91.4654 -44.9277 75.4939 -24.1673 32.5464 -12.8077 6.22246 -9.93838 -11.3089 -1.54877 -0.0812334 -3.23583 6.52925 -1.51654 -5.1731 9.84142 -0.0776344 3.50753 
38.1843 101.98 29.8025 -171.809 -81.2157 -173.502 -174.349 -7.25893 89.0836 -16.0412 19.7442 8.29314 71.8168 5.36919 -2.00803 13.555 -8.13998 4.00547 171.141 -7.62117 85.2993 -14.1556 9.91739 2.49615 65.9951 -2.86443 1.29653 26.3281 -1.21238 2.69062 0.0944567 7.98974 -89.7201 10.8933 0.317546 0.526953 -0.777673 0.340427 0.512448 -23.3121 0.144497 0.598016 -3.29942 0.144498 0.598013 84.2605 -49.8107 -109.378 25.055 -28.6652 -14.7853 -14.1016 -16.6767 -14.9184 -9.50258 -0.0809336 -4.20703 -91.3195 -44.7774 75.6835 -24.3929 32.199 -12.8691 6.39247 -9.42208 -11.2112 -1.37732 -0.0824147 -3.07025 6.70277 -1.50755 -5.25527 9.72182 -0.0496914 3.49695 
38.2059 101.992 29.7831 -171.193 -81.2463 -172.978 -174.492 -7.28744 88.8642 -15.8836 19.4307 8.34388 71.6467 5.31435 -1.93703 13.3897 -8.09328 3.75981 171.087 -7.42434 85.1579 -14.332 10.1551 2.48381 66.0939 -2.87838 1.37458 26.3236 -1.40001 3.2893 0.106298 7.9806 -89.7141 10.9116 0.343965 0.536316 -0.759439 0.367232 0.520659 -23.2938 0.166874 0.614894 -3.28117 0.166872 0.614895 84.2492 -49.853 -109.381 25.0431 -28.6052 -14.6996 -14.1907 -16.832 -15.0246 -9.48512 -0.0809308 -4.207 -91.3684 -44.8399 75.6228 -24.2295 32.4487 -12.7814 6.30213 -9.68439 -11.3792 -1.65558 -0.0835293 -3.42145 6.65754 -1.48025 -4.9712 9.69305 -0.131952 3.03969 
38.1849 101.988 29.7948 -172.225 -81.3264 -173.97 -174.425 -7.17064 88.9985 -15.9559 19.5899 8.31319 71.7351 5.28404 -2.20229 13.6377 -8.17025 4.14372 171.102 -7.44576 85.2429 -14.2867 10.0011 2.53317 65.9823 -2.85011 1.42725 26.3753 -1.09423 2.33864 0.0943004 7.97517 -89.7289 10.9225 0.313205 0.50966 -0.748477 0.335332 0.495371 -23.2829 0.145551 0.580224 -3.27027 0.145555 0.580223 84.4199 -49.6934 -109.177 25.1522 -28.622 -14.7917 -14.1571 -16.9398 -14.9566 -9.58811 -0.0806132 -4.21873 -91.4977 -45.0045 75.4635 -24.0665 32.4827 -12.8084 6.37733 -9.25063 -11.3642 -1.90723 -0.0846276 -2.95619 6.58807 -1.51525 -5.07694 9.89172 -0.103892 3.39138 
38.178 101.984 29.7896 -172.731 -81.2964 -174.4 -174.381 -7.09905 89.1053 -16.1431 19.7164 8.34301 71.6894 5.25402 -2.20348 13.8365 -8.04891 4.08902 171.169 -7.61468 85.3234 -14.0405 10.5291 2.54115 66.1358 -2.94901 1.37824 26.1805 -1.4769 3.44853 0.0919703 7.97929 -89.7382 10.9144 0.304278 0.492047 -0.756608 0.32564 0.478171 -23.2911 0.142331 0.560745 -3.27845 0.142331 0.560739 84.3822 -49.7112 -109.228 25.1451 -28.5908 -14.7449 -14.0732 -16.5447 -14.8616 -9.78475 -0.102772 -3.95899 -91.532 -45.0124 75.4117 -24 32.5273 -12.7768 6.28271 -9.70185 -11.4154 -1.60509 -0.0855342 -3.10801 6.70376 -1.53607 -4.98485 9.69016 -0.153328 3.2999 
